<svg width="359" height="182" viewBox="0 0 359 182" fill="none" xmlns="http://www.w3.org/2000/svg">
<path fill-rule="evenodd" clip-rule="evenodd" d="M358.777 90.9016C358.777 141.092 278.452 181.803 179.389 181.803C80.3047 181.803 0 141.092 0 90.9016C0 40.7111 80.3247 0 179.389 0C278.452 0 358.777 40.6912 358.777 90.9016ZM118.04 67.5128C115.326 64.4994 109.897 63.0027 101.755 63.0027H87.0673L79.0648 104.193H92.0963C100.737 104.193 107.183 102.556 111.414 99.3035C115.645 96.0506 118.499 90.6224 119.975 82.999C121.392 75.675 120.754 70.5263 118.04 67.5128ZM70.9425 145.882H49.5093L68.6475 47.4766H109.838C122.251 47.4766 131.291 50.7295 136.978 57.2353C142.666 63.7411 144.382 72.8213 142.107 84.4958C141.189 89.2853 139.593 93.6957 137.378 97.667C135.162 101.658 132.249 105.31 128.657 108.603C124.386 112.614 119.616 115.468 114.388 117.164C109.159 118.861 102.494 119.719 94.3913 119.719H76.0314L70.9425 145.882ZM157.874 21.3135H179.148L174.059 47.4764H192.997C204.911 47.4764 213.134 49.5518 217.664 53.7227C222.194 57.8737 223.551 64.619 221.735 73.9386L212.834 119.739H191.221L199.683 76.1937C200.641 71.2445 200.302 67.8719 198.625 66.0558C196.949 64.2598 193.397 63.3617 187.949 63.3617H170.946L159.99 119.739H138.756L157.874 21.3135ZM285.358 67.5128C282.644 64.4994 277.215 63.0027 269.073 63.0027H254.385L246.383 104.193H259.414C268.055 104.193 274.501 102.556 278.732 99.3035C282.963 96.0506 285.817 90.6224 287.293 82.999C288.71 75.675 288.072 70.5263 285.358 67.5128ZM238.28 145.882H216.847L235.945 47.4766H277.176C289.588 47.4766 298.629 50.7295 304.316 57.2353C310.004 63.7411 311.72 72.8213 309.445 84.4958C308.527 89.2853 306.931 93.6957 304.715 97.667C302.5 101.658 299.587 105.31 295.994 108.603C291.724 112.614 286.954 115.468 281.726 117.164C276.497 118.861 269.832 119.719 261.729 119.719H243.369L238.28 145.882Z" fill="white"/>
</svg>
